<svg xmlns="http://www.w3.org/2000/svg" xmlns:xlink="http://www.w3.org/1999/xlink" width="151" zoomAndPan="magnify" viewBox="0 0 113.25 113.249998" height="151" preserveAspectRatio="xMidYMid meet" version="1.0"><defs><g/></defs><g fill="#000000" fill-opacity="1"><g transform="translate(1.829683, 83.998477)"><g><path d="M 56.796875 -14.9375 C 53.878906 -7.945312 50.242188 -4.453125 45.890625 -4.453125 C 44.785156 -4.453125 43.800781 -4.59375 42.9375 -4.875 C 42.082031 -5.164062 41.269531 -5.695312 40.5 -6.46875 C 38.300781 -3.6875 35.957031 -1.445312 33.46875 0.25 C 30.976562 1.945312 28.101562 2.796875 24.84375 2.796875 C 20.726562 2.796875 17.722656 1.410156 15.828125 -1.359375 C 13.941406 -4.140625 13 -7.707031 13 -12.0625 C 13 -14.125 13.1875 -16.363281 13.5625 -18.78125 C 13.945312 -21.195312 14.460938 -23.585938 15.109375 -25.953125 C 15.765625 -28.328125 16.519531 -30.492188 17.375 -32.453125 C 16.65625 -32.359375 15.960938 -32.285156 15.296875 -32.234375 C 14.628906 -32.191406 13.9375 -32.171875 13.21875 -32.171875 C 9.289062 -32.171875 6.101562 -33.078125 3.65625 -34.890625 C 1.21875 -36.710938 0 -39.253906 0 -42.515625 C 0 -44.328125 0.359375 -45.90625 1.078125 -47.25 C 1.796875 -48.59375 2.753906 -49.863281 3.953125 -51.0625 C 4.234375 -51.34375 4.566406 -51.484375 4.953125 -51.484375 C 5.378906 -51.484375 5.765625 -51.316406 6.109375 -50.984375 C 6.390625 -50.703125 6.53125 -50.367188 6.53125 -49.984375 C 6.53125 -49.546875 6.390625 -49.1875 6.109375 -48.90625 C 5.054688 -47.851562 4.273438 -46.859375 3.765625 -45.921875 C 3.265625 -44.992188 3.015625 -43.859375 3.015625 -42.515625 C 3.015625 -40.117188 3.992188 -38.296875 5.953125 -37.046875 C 7.921875 -35.804688 10.34375 -35.1875 13.21875 -35.1875 C 14.175781 -35.1875 15.128906 -35.234375 16.078125 -35.328125 C 17.035156 -35.421875 17.992188 -35.566406 18.953125 -35.765625 C 20.242188 -38.253906 21.703125 -40.5625 23.328125 -42.6875 C 24.960938 -44.820312 26.757812 -46.546875 28.71875 -47.859375 C 30.6875 -49.179688 32.796875 -49.84375 35.046875 -49.84375 C 36.097656 -49.84375 36.945312 -49.585938 37.59375 -49.078125 C 38.238281 -48.578125 38.5625 -47.800781 38.5625 -46.75 C 38.5625 -45.269531 38 -43.796875 36.875 -42.328125 C 35.75 -40.867188 34.300781 -39.53125 32.53125 -38.3125 C 30.757812 -37.09375 28.851562 -36.023438 26.8125 -35.109375 C 24.78125 -34.203125 22.859375 -33.535156 21.046875 -33.109375 C 19.410156 -29.804688 18.160156 -26.285156 17.296875 -22.546875 C 16.441406 -18.816406 16.015625 -15.320312 16.015625 -12.0625 C 16.015625 -8.570312 16.671875 -5.722656 17.984375 -3.515625 C 19.304688 -1.316406 21.59375 -0.21875 24.84375 -0.21875 C 27.664062 -0.21875 30.273438 -1.101562 32.671875 -2.875 C 35.066406 -4.644531 37.078125 -6.75 38.703125 -9.1875 C 38.367188 -10.144531 38.1875 -11.269531 38.15625 -12.5625 C 38.132812 -13.851562 38.296875 -14.976562 38.640625 -15.9375 C 38.878906 -16.707031 39.378906 -17.09375 40.140625 -17.09375 C 40.671875 -17.09375 41.066406 -16.890625 41.328125 -16.484375 C 41.585938 -16.078125 41.671875 -15.632812 41.578125 -15.15625 C 41.484375 -14.820312 41.410156 -14.472656 41.359375 -14.109375 C 41.316406 -13.753906 41.269531 -13.40625 41.21875 -13.0625 C 42.75 -15.75 44.125 -18.625 45.34375 -21.6875 C 46.570312 -24.75 47.53125 -27.859375 48.21875 -31.015625 C 48.914062 -34.179688 49.265625 -37.175781 49.265625 -40 C 49.265625 -42.101562 49.023438 -44.003906 48.546875 -45.703125 C 48.066406 -47.410156 47.273438 -48.765625 46.171875 -49.765625 C 45.078125 -50.773438 43.570312 -51.28125 41.65625 -51.28125 C 40.550781 -51.28125 39.253906 -51.109375 37.765625 -50.765625 C 37.191406 -50.628906 36.722656 -50.710938 36.359375 -51.015625 C 36.003906 -51.328125 35.828125 -51.675781 35.828125 -52.0625 C 35.828125 -52.925781 36.238281 -53.476562 37.0625 -53.71875 C 37.875 -53.957031 38.640625 -54.113281 39.359375 -54.1875 C 40.078125 -54.257812 40.742188 -54.296875 41.359375 -54.296875 C 44.046875 -54.296875 46.175781 -53.671875 47.75 -52.421875 C 49.332031 -51.179688 50.484375 -49.46875 51.203125 -47.28125 C 51.921875 -45.101562 52.28125 -42.648438 52.28125 -39.921875 C 52.28125 -36.671875 51.835938 -33.1875 50.953125 -29.46875 C 50.066406 -25.757812 48.867188 -22.125 47.359375 -18.5625 C 45.847656 -15 44.132812 -11.800781 42.21875 -8.96875 C 42.695312 -8.394531 43.25 -8 43.875 -7.78125 C 44.5 -7.570312 45.097656 -7.46875 45.671875 -7.46875 C 47.492188 -7.46875 49.035156 -8.234375 50.296875 -9.765625 C 51.566406 -11.296875 52.800781 -13.425781 54 -16.15625 C 54.238281 -16.78125 54.695312 -17.09375 55.375 -17.09375 C 55.84375 -17.09375 56.253906 -16.863281 56.609375 -16.40625 C 56.972656 -15.957031 57.035156 -15.46875 56.796875 -14.9375 Z M 22.984375 -36.84375 C 24.316406 -37.363281 25.710938 -37.972656 27.171875 -38.671875 C 28.640625 -39.367188 29.992188 -40.132812 31.234375 -40.96875 C 32.484375 -41.800781 33.5 -42.632812 34.28125 -43.46875 C 35.070312 -44.3125 35.46875 -45.117188 35.46875 -45.890625 C 35.46875 -46.515625 35.160156 -46.828125 34.546875 -46.828125 C 33.109375 -46.828125 31.691406 -46.347656 30.296875 -45.390625 C 28.910156 -44.429688 27.609375 -43.195312 26.390625 -41.6875 C 25.171875 -40.175781 24.035156 -38.5625 22.984375 -36.84375 Z M 22.984375 -36.84375 "/></g></g></g><g fill="#000000" fill-opacity="1"><g transform="translate(54.604883, 83.998477)"><g><path d="M 31.09375 -47.03125 C 31.625 -48.425781 32.304688 -49.804688 33.140625 -51.171875 C 33.972656 -52.535156 34.925781 -53.660156 36 -54.546875 C 37.082031 -55.429688 38.222656 -55.875 39.421875 -55.875 C 40.671875 -55.875 41.6875 -55.515625 42.46875 -54.796875 C 43.257812 -54.078125 43.65625 -53.140625 43.65625 -51.984375 C 43.65625 -50.890625 43.148438 -49.847656 42.140625 -48.859375 C 41.140625 -47.878906 39.863281 -47.03125 38.3125 -46.3125 C 36.757812 -45.59375 35.117188 -45 33.390625 -44.53125 C 32.523438 -42.375 31.6875 -40.035156 30.875 -37.515625 C 30.0625 -35.003906 29.320312 -32.578125 28.65625 -30.234375 C 27.457031 -26.453125 26.4375 -23.300781 25.59375 -20.78125 C 24.757812 -18.269531 24.007812 -16.175781 23.34375 -14.5 C 22.863281 -13.300781 22.347656 -12.140625 21.796875 -11.015625 C 21.242188 -9.890625 20.632812 -8.828125 19.96875 -7.828125 C 20.925781 -6.921875 21.894531 -5.988281 22.875 -5.03125 C 23.851562 -4.070312 24.847656 -3.113281 25.859375 -2.15625 C 27.867188 -0.1875 29.898438 1.773438 31.953125 3.734375 C 34.015625 5.691406 36.117188 7.316406 38.265625 8.609375 C 40.421875 9.910156 42.578125 10.5625 44.734375 10.5625 C 46.554688 10.5625 48.207031 10.210938 49.6875 9.515625 C 51.175781 8.816406 52.207031 7.847656 52.78125 6.609375 C 53.019531 5.984375 53.472656 5.671875 54.140625 5.671875 C 54.671875 5.671875 55.054688 5.863281 55.296875 6.25 C 55.535156 6.632812 55.65625 6.96875 55.65625 7.25 C 55.65625 7.34375 55.609375 7.535156 55.515625 7.828125 C 54.597656 9.835938 53.097656 11.304688 51.015625 12.234375 C 48.941406 13.171875 46.828125 13.640625 44.671875 13.640625 C 42.128906 13.640625 39.648438 12.929688 37.234375 11.515625 C 34.816406 10.109375 32.484375 8.351562 30.234375 6.25 C 27.984375 4.144531 25.804688 2.0625 23.703125 0 C 22.785156 -0.90625 21.875 -1.8125 20.96875 -2.71875 C 20.0625 -3.632812 19.148438 -4.476562 18.234375 -5.25 C 18.140625 -5.101562 18.03125 -4.957031 17.90625 -4.8125 C 17.789062 -4.664062 17.6875 -4.546875 17.59375 -4.453125 C 16.351562 -2.960938 14.832031 -1.785156 13.03125 -0.921875 C 11.238281 -0.0664062 9.382812 0.359375 7.46875 0.359375 C 2.488281 -0.0234375 0 -2.320312 0 -6.53125 C 0.144531 -9.070312 0.984375 -11.023438 2.515625 -12.390625 C 4.046875 -13.753906 5.84375 -14.4375 7.90625 -14.4375 C 9.4375 -14.4375 11.035156 -14.003906 12.703125 -13.140625 C 14.378906 -12.273438 16.035156 -11.148438 17.671875 -9.765625 C 18.191406 -10.671875 18.691406 -11.613281 19.171875 -12.59375 C 19.648438 -13.582031 20.101562 -14.601562 20.53125 -15.65625 C 21.007812 -16.851562 21.460938 -18.070312 21.890625 -19.3125 C 22.328125 -20.5625 22.84375 -22.117188 23.4375 -23.984375 C 24.039062 -25.847656 24.796875 -28.242188 25.703125 -31.171875 C 26.328125 -33.179688 26.984375 -35.285156 27.671875 -37.484375 C 28.367188 -39.691406 29.101562 -41.820312 29.875 -43.875 C 29.15625 -43.726562 28.425781 -43.59375 27.6875 -43.46875 C 26.945312 -43.351562 26.21875 -43.25 25.5 -43.15625 C 23.101562 -42.769531 20.707031 -42.347656 18.3125 -41.890625 C 15.914062 -41.441406 13.703125 -40.832031 11.671875 -40.0625 C 9.640625 -39.300781 7.960938 -38.296875 6.640625 -37.046875 C 5.328125 -35.804688 4.523438 -34.207031 4.234375 -32.25 C 4.191406 -32.101562 4.171875 -31.957031 4.171875 -31.8125 C 4.171875 -31.664062 4.171875 -31.519531 4.171875 -31.375 C 4.066406 -29.75 4.472656 -28.335938 5.390625 -27.140625 C 6.296875 -25.898438 7.539062 -25.179688 9.125 -24.984375 L 9.84375 -24.921875 C 10.269531 -24.921875 10.625 -24.765625 10.90625 -24.453125 C 11.195312 -24.140625 11.320312 -23.769531 11.28125 -23.34375 C 11.28125 -22.957031 11.125 -22.617188 10.8125 -22.328125 C 10.5 -22.046875 10.125 -21.90625 9.6875 -21.90625 C 9.5 -21.90625 9.320312 -21.90625 9.15625 -21.90625 C 8.988281 -21.90625 8.832031 -21.925781 8.6875 -21.96875 C 6.25 -22.3125 4.332031 -23.4375 2.9375 -25.34375 C 2.320312 -26.164062 1.859375 -27.113281 1.546875 -28.1875 C 1.234375 -29.257812 1.101562 -30.375 1.15625 -31.53125 C 1.15625 -31.71875 1.15625 -31.90625 1.15625 -32.09375 C 1.15625 -32.289062 1.175781 -32.484375 1.21875 -32.671875 C 1.550781 -35.160156 2.457031 -37.195312 3.9375 -38.78125 C 5.425781 -40.363281 7.296875 -41.609375 9.546875 -42.515625 C 11.796875 -43.421875 14.257812 -44.132812 16.9375 -44.65625 C 19.625 -45.1875 22.304688 -45.671875 24.984375 -46.109375 Z M 34.828125 -48.109375 C 36.359375 -48.441406 37.675781 -49.023438 38.78125 -49.859375 C 39.882812 -50.703125 40.4375 -51.410156 40.4375 -51.984375 C 40.4375 -52.660156 40.097656 -53 39.421875 -53 C 38.660156 -53 37.847656 -52.492188 36.984375 -51.484375 C 36.117188 -50.484375 35.398438 -49.359375 34.828125 -48.109375 Z M 15.296875 -6.390625 C 15.390625 -6.535156 15.492188 -6.675781 15.609375 -6.8125 C 15.734375 -6.957031 15.867188 -7.101562 16.015625 -7.25 C 14.523438 -8.5 13.097656 -9.503906 11.734375 -10.265625 C 10.367188 -11.035156 9.066406 -11.421875 7.828125 -11.421875 C 6.578125 -11.421875 5.484375 -10.988281 4.546875 -10.125 C 3.617188 -9.257812 3.109375 -8.0625 3.015625 -6.53125 C 3.015625 -5.144531 3.457031 -4.148438 4.34375 -3.546875 C 5.226562 -2.953125 6.269531 -2.65625 7.46875 -2.65625 C 8.90625 -2.65625 10.328125 -3 11.734375 -3.6875 C 13.148438 -4.382812 14.335938 -5.285156 15.296875 -6.390625 Z M 15.296875 -6.390625 "/></g></g></g></svg>